<svg width="36" height="36" viewBox="0 0 36 36" fill="none" xmlns="http://www.w3.org/2000/svg">
<path fill-rule="evenodd" clip-rule="evenodd" d="M18 0C8.0658 0 0 8.0658 0 18C0 27.9342 8.0658 36 18 36C27.9342 36 36 27.9342 36 18C36 8.0658 27.9342 0 18 0ZM14.8176 20.5452L23.7276 11.6352C24.4296 10.9332 25.5708 10.9332 26.2728 11.6352C26.9748 12.339 26.9748 13.4784 26.2728 14.1822L16.0902 24.3648C15.3882 25.0668 14.247 25.0668 13.545 24.3648L9.7272 20.5452C9.0234 19.8432 9.0234 18.702 9.7272 18C10.4292 17.298 11.5686 17.298 12.2724 18L14.8176 20.5452Z" fill="#3358D4"/>
</svg>
