<svg width="22" height="12" viewBox="0 0 22 12" fill="none" xmlns="http://www.w3.org/2000/svg">
<path d="M1.2948 0C0.963865 0 0.628011 0.128715 0.376912 0.379814C-0.125637 0.882363 -0.125637 1.71338 0.376912 2.21593L9.78117 11.6202C10.0238 11.8628 10.3664 12 10.699 12C11.0286 12 11.357 11.8801 11.6169 11.6202L21.0082 2.22824C21.5343 1.73308 21.541 0.882363 21.0384 0.379814C20.5359 -0.122736 19.7049 -0.122736 19.2023 0.379814L19.202 0.380165L17.7866 1.79823C13.8825 5.70996 7.54556 5.71305 3.63763 1.80512L2.21233 0.379814C1.96088 0.128363 1.62537 0 1.2948 0Z" fill="white"/>
</svg>
