<svg width="18" height="18" viewBox="0 0 18 18" fill="none" xmlns="http://www.w3.org/2000/svg">
<path d="M2.1635 17.9993H15.4721C16.6651 17.9993 17.6356 17.0287 17.6356 15.8358V3.97991C17.6356 2.78695 16.6651 1.81641 15.4721 1.81641H15.4618V2.53085V2.84927C15.4618 3.5933 14.8565 4.19859 14.1124 4.19859H13.9533C13.2093 4.19859 12.604 3.5933 12.604 2.84927V2.43777V1.81641H5.03184V2.43777V2.84927C5.03184 3.5933 4.42655 4.19859 3.68252 4.19859H3.52321C2.77918 4.19859 2.17389 3.5933 2.17389 2.84927V2.53085V1.81641H2.1635C0.970548 1.81621 0 2.78676 0 3.97991V15.836C0 17.0287 0.970548 17.9993 2.1635 17.9993ZM1.24272 6.58763H16.3927V15.8358C16.3927 16.3435 15.9797 16.7565 15.4719 16.7565H2.1635C1.65579 16.7565 1.24272 16.3435 1.24272 15.8358V6.58763Z" fill="white"/>
<path d="M5.28912 7.78125H2.69531V9.85638H5.28912V7.78125Z" fill="white"/>
<path d="M8.50787 7.78125H5.91406V9.85638H8.50787V7.78125Z" fill="white"/>
<path d="M11.7227 7.78125H9.12891V9.85638H11.7227V7.78125Z" fill="white"/>
<path d="M14.9376 7.78125H12.3438V9.85638H14.9376V7.78125Z" fill="white"/>
<path d="M5.28912 10.4805H2.69531V12.5556H5.28912V10.4805Z" fill="white"/>
<path d="M8.50787 10.4805H5.91406V12.5556H8.50787V10.4805Z" fill="white"/>
<path d="M11.7227 10.4805H9.12891V12.5556H11.7227V10.4805Z" fill="white"/>
<path d="M14.9376 10.4805H12.3438V12.5556H14.9376V10.4805Z" fill="white"/>
<path d="M5.28912 13.1797H2.69531V15.2548H5.28912V13.1797Z" fill="white"/>
<path d="M8.50787 13.1797H5.91406V15.2548H8.50787V13.1797Z" fill="white"/>
<path d="M11.7227 13.1797H9.12891V15.2548H11.7227V13.1797Z" fill="white"/>
<path d="M14.9376 13.1797H12.3438V15.2548H14.9376V13.1797Z" fill="white"/>
<path d="M3.68291 3.61903C4.10734 3.61903 4.45261 3.27376 4.45261 2.84933V0.769698C4.45261 0.345267 4.10734 0 3.68291 0H3.5236C3.09917 0 2.75391 0.345267 2.75391 0.769698V2.84933C2.75391 3.27376 3.09917 3.61903 3.5236 3.61903H3.68291Z" fill="white"/>
<path d="M14.1126 3.61903C14.537 3.61903 14.8825 3.27376 14.8825 2.84933V0.769698C14.8825 0.345267 14.537 0 14.1126 0H13.9535C13.5291 0 13.1836 0.345267 13.1836 0.769698V2.84933C13.1836 3.27376 13.5291 3.61903 13.9535 3.61903H14.1126Z" fill="white"/>
</svg>
