<svg width="37" height="37" viewBox="0 0 37 37" fill="none" xmlns="http://www.w3.org/2000/svg">
<path fill-rule="evenodd" clip-rule="evenodd" d="M18.2302 0C28.2913 0 36.4604 8.16918 36.4604 18.2319C36.4604 28.2929 28.2913 36.4621 18.2302 36.4621C8.16918 36.4621 0 28.2929 0 18.2319C0 8.1696 8.16918 0 18.2302 0ZM16.3827 18.2319L9.33424 25.2803C8.82456 25.79 8.82456 26.6182 9.33424 27.1279C9.84392 27.6376 10.6721 27.6376 11.1818 27.1279L18.2302 20.0794L25.2787 27.1279C25.7884 27.6376 26.6165 27.6376 27.1262 27.1279C27.6359 26.6182 27.6359 25.79 27.1262 25.2803L20.0777 18.2319L27.1262 11.1834C27.6359 10.6738 27.6359 9.84559 27.1262 9.33591C26.6165 8.82623 25.7884 8.82623 25.2787 9.33591L18.2302 16.3844L11.1818 9.33591C10.6721 8.82623 9.84392 8.82623 9.33424 9.33591C8.82456 9.84559 8.82456 10.6738 9.33424 11.1834L16.3827 18.2319Z" fill="#979797"/>
</svg>
