<svg width="16" height="16" viewBox="0 0 16 16" fill="none" xmlns="http://www.w3.org/2000/svg">
<rect width="16" height="16" fill="white" fill-opacity="0.01"/>
<path fill-rule="evenodd" clip-rule="evenodd" d="M13.8133 1.60006C13.8133 1.33496 13.5984 1.12006 13.3333 1.12006C13.0682 1.12006 12.8533 1.33496 12.8533 1.60006V14.4C12.8533 14.6652 13.0682 14.88 13.3333 14.88C13.5984 14.88 13.8133 14.6652 13.8133 14.4V1.60006ZM7.00618 4.19401C6.81874 4.00655 6.51481 4.00655 6.32737 4.19401C6.13991 4.38145 6.13991 4.68538 6.32737 4.87282L8.97462 7.52008H0.533313C0.268217 7.52008 0.0533142 7.73499 0.0533142 8.00008C0.0533141 8.26518 0.268218 8.48008 0.533313 8.48008H8.97462L6.32737 11.1274C6.13991 11.3148 6.13991 11.6187 6.32737 11.8062C6.51481 11.9936 6.81874 11.9936 7.00619 11.8062L10.4728 8.33949C10.6603 8.15205 10.6603 7.84812 10.4728 7.66068L7.00618 4.19401Z" fill="#1C2024"/>
</svg>
