<svg width="30" height="30" viewBox="0 0 30 30" fill="none" xmlns="http://www.w3.org/2000/svg">
<rect width="30" height="30" fill="white" fill-opacity="0.01"/>
<path fill-rule="evenodd" clip-rule="evenodd" d="M23.5647 8.06473C24.0139 7.61563 24.0139 6.88749 23.5647 6.43839C23.1157 5.98929 22.3875 5.98929 21.9385 6.43839L15.0016 13.3752L8.06475 6.43839C7.61563 5.98929 6.88749 5.98929 6.43839 6.43839C5.98929 6.88749 5.98929 7.61563 6.43839 8.06473L13.3752 15.0016L6.43839 21.9384C5.98929 22.3876 5.98929 23.1156 6.43839 23.5648C6.88749 24.0138 7.61563 24.0138 8.06475 23.5648L15.0016 16.6279L21.9385 23.5648C22.3875 24.0138 23.1157 24.0138 23.5647 23.5648C24.0139 23.1156 24.0139 22.3876 23.5647 21.9384L16.6279 15.0016L23.5647 8.06473Z" fill="#3358D4"/>
</svg>
