<svg width="26" height="26" viewBox="0 0 26 26" fill="none" xmlns="http://www.w3.org/2000/svg">
<path d="M22.17 0H3.83C1.72 0 0 1.72 0 3.83C0 4.85 0.4 5.81 1.12 6.54L6.07107 11.4911C7.94643 13.3664 9 15.91 9 18.5621V23.59C9 24.92 10.08 26 11.41 26C12.05 26 12.67 25.74 13.12 25.29L16.12 22.29C16.69 21.72 17 20.97 17 20.17V18.5521C17 15.9 18.0536 13.3564 19.9289 11.4811L24.88 6.53C25.6 5.81 26 4.85 26 3.83C26 1.72 24.28 0 22.17 0ZM23.46 5.12L15.59 13C15.21 13.38 15 13.88 15 14.42V20.18C15 20.44 14.89 20.7 14.71 20.89L11.71 23.89C11.47 24.12 11 23.92 11 23.59V14.42C11 13.89 10.79 13.38 10.41 13.01L2.54 5.12C2.2 4.78 2 4.31 2 3.83C2 2.82 2.82 2 3.83 2H22.17C23.18 2 24 2.82 24 3.83C24 4.31 23.8 4.78 23.46 5.12Z" fill="white"/>
</svg>
