<svg width="20" height="20" viewBox="0 0 20 20" fill="none" xmlns="http://www.w3.org/2000/svg">
<path d="M19.7976 18.7885L15.1248 14.1157V14.1166C17.0493 11.8417 17.6555 8.73155 16.7257 5.90144C15.796 3.07041 13.4641 0.924657 10.5662 0.233901C7.66827 -0.456925 4.61886 0.405942 2.51236 2.51233C0.405968 4.61871 -0.456965 7.66824 0.233929 10.5661C0.924755 13.464 3.07044 15.796 5.90147 16.7257C8.73159 17.6554 11.8417 17.0493 14.1166 15.1247L18.7894 19.7975H18.7886C19.0685 20.0676 19.5133 20.0632 19.7887 19.7886C20.0632 19.5132 20.0677 19.0684 19.7976 18.7885ZM1.46502 8.59625C1.46502 6.70469 2.21647 4.89077 3.55356 3.55352C4.89064 2.21628 6.70475 1.46498 8.59629 1.46498C10.4878 1.46498 12.3018 2.21644 13.639 3.55352C14.9763 4.89061 15.7276 6.70472 15.7276 8.59625C15.7276 10.4878 14.9761 12.3017 13.639 13.639C12.3019 14.9762 10.4878 15.7275 8.59629 15.7275C6.70562 15.7257 4.89331 14.9734 3.5563 13.6363C2.21919 12.2992 1.46682 10.4869 1.46502 8.59625Z" fill="white"/>
</svg>
