<svg width="12" height="19" viewBox="0 0 12 19" fill="none" xmlns="http://www.w3.org/2000/svg">
<path d="M1.30728 7.09097L5.90056 1.84361L10.4938 7.09097C10.562 7.1707 10.6465 7.23491 10.7416 7.27928C10.8367 7.32365 10.9401 7.34715 11.045 7.34819C11.1863 7.34801 11.3245 7.30714 11.4431 7.23047C11.5617 7.1538 11.6557 7.04457 11.7138 6.91586C11.772 6.78715 11.7918 6.64442 11.771 6.50473C11.7501 6.36504 11.6894 6.23432 11.5962 6.12822L6.45176 0.248818C6.38279 0.170617 6.29797 0.107987 6.20294 0.0650868C6.10791 0.022187 6.00483 0 5.90056 0C5.7963 0 5.69322 0.022187 5.59819 0.0650868C5.50315 0.107987 5.41834 0.170617 5.34937 0.248818L0.204894 6.12822C0.13617 6.19977 0.082644 6.28449 0.0475415 6.37728C0.0124389 6.47007 -0.00351344 6.56901 0.000646343 6.66813C0.00480613 6.76725 0.0289919 6.86451 0.0717456 6.95403C0.114499 7.04355 0.174936 7.1235 0.249414 7.18904C0.323891 7.25458 0.410867 7.30436 0.5051 7.33538C0.599333 7.36641 0.698872 7.37803 0.797718 7.36955C0.896564 7.36108 0.99267 7.33268 1.08024 7.28606C1.16782 7.23945 1.24505 7.17558 1.30728 7.09832V7.09097Z" fill="#696969"/>
<path d="M5.47437 18.7484C5.54334 18.8266 5.62815 18.8893 5.72319 18.9322C5.81822 18.9751 5.9213 18.9972 6.02556 18.9972C6.12983 18.9972 6.23291 18.9751 6.32794 18.9322C6.42297 18.8893 6.50779 18.8266 6.57676 18.7484L11.7212 12.869C11.84 12.7215 11.8973 12.5339 11.8811 12.3452C11.8649 12.1566 11.7765 11.9814 11.6344 11.8563C11.4922 11.7312 11.3073 11.6658 11.1181 11.6737C10.9289 11.6817 10.75 11.7624 10.6188 11.8989L6.02556 17.1463L1.43228 11.8989C1.37005 11.8217 1.29282 11.7578 1.20524 11.7112C1.11767 11.6646 1.02156 11.6362 0.922718 11.6277C0.823872 11.6192 0.724333 11.6308 0.6301 11.6619C0.535867 11.6929 0.448891 11.7427 0.374414 11.8082C0.299936 11.8737 0.239499 11.9537 0.196746 12.0432C0.153992 12.1327 0.129806 12.23 0.125646 12.3291C0.121487 12.4282 0.137439 12.5272 0.172541 12.62C0.207644 12.7128 0.26117 12.7975 0.329894 12.869L5.47437 18.7484Z" fill="#696969"/>
</svg>
