<svg width="30" height="30" viewBox="0 0 30 30" fill="none" xmlns="http://www.w3.org/2000/svg">
<circle cx="15" cy="15" r="15" fill="#3358D4"/>
<path d="M16.1069 16.8494H7.77166V15.4176H16.1069C16.9478 15.4176 17.658 15.2585 18.2376 14.9403C18.8171 14.6222 19.2575 14.1847 19.5586 13.6278C19.8597 13.0653 20.0103 12.4233 20.0103 11.7017C20.0103 10.9801 19.8597 10.3409 19.5586 9.78409C19.2575 9.22159 18.8171 8.78125 18.2376 8.46307C17.658 8.1392 16.9478 7.97727 16.1069 7.97727H11.9308V24H10.337V6.54545H16.1069C17.3001 6.54545 18.3001 6.77557 19.1069 7.23579C19.9194 7.69602 20.533 8.31534 20.9478 9.09375C21.3683 9.87216 21.5785 10.7415 21.5785 11.7017C21.5785 12.6619 21.3683 13.5312 20.9478 14.3097C20.533 15.0881 19.9194 15.7074 19.1069 16.1676C18.3001 16.6222 17.3001 16.8494 16.1069 16.8494ZM16.0387 18.4517V19.8835H7.77166V18.4517H16.0387Z" fill="white"/>
</svg>
