<svg width="30" height="30" viewBox="0 0 30 30" fill="none" xmlns="http://www.w3.org/2000/svg">
<circle cx="15" cy="15" r="14.5" fill="#3358D4" stroke="white"/>
<rect width="22" height="22" transform="translate(4 4)" fill="white" fill-opacity="0.01"/>
<path fill-rule="evenodd" clip-rule="evenodd" d="M21.3855 5.67964C21.0991 5.39325 20.6348 5.39325 20.3485 5.67964L9.44827 16.5798C9.31633 16.7117 9.21079 16.8676 9.13728 17.0391L6.99291 22.0426C6.87478 22.3183 6.93637 22.638 7.14841 22.8501C7.36044 23.0621 7.6802 23.1237 7.95582 23.0056L12.9594 20.8612C13.1309 20.7877 13.2868 20.6821 13.4187 20.5502L24.3189 9.65005C24.6052 9.36367 24.6052 8.89935 24.3189 8.61297L21.3855 5.67964ZM10.4854 17.6169L20.8669 7.23527L22.7632 9.13151L12.3816 19.5132L10.1885 20.453L9.54545 19.81L10.4854 17.6169Z" fill="#F0F4FF"/>
</svg>
