<svg width="30" height="30" viewBox="0 0 30 30" fill="none" xmlns="http://www.w3.org/2000/svg">
<circle cx="15" cy="15" r="15" fill="#3358D4"/>
<path fill-rule="evenodd" clip-rule="evenodd" d="M6 9.28571C6 9.02272 6.21208 8.80952 6.47368 8.80952H23.5263C23.7879 8.80952 24 9.02272 24 9.28571C24 9.54871 23.7879 9.7619 23.5263 9.7619H6.47368C6.21208 9.7619 6 9.54871 6 9.28571Z" fill="white"/>
<path fill-rule="evenodd" clip-rule="evenodd" d="M13.1053 5.95238C12.7284 5.95238 12.3669 6.10289 12.1004 6.3708C11.8339 6.63871 11.6842 7.00207 11.6842 7.38095V9.28571C11.6842 9.54871 11.4721 9.7619 11.2105 9.7619C10.9489 9.7619 10.7368 9.54871 10.7368 9.28571V7.38095C10.7368 6.74948 10.9864 6.14388 11.4305 5.69736C11.8747 5.25085 12.4771 5 13.1053 5H16.8947C17.5229 5 18.1253 5.25085 18.5695 5.69736C19.0136 6.14388 19.2632 6.74948 19.2632 7.38095V9.28571C19.2632 9.54871 19.0511 9.7619 18.7895 9.7619C18.5279 9.7619 18.3158 9.54871 18.3158 9.28571V7.38095C18.3158 7.00207 18.1661 6.63871 17.8996 6.3708C17.6331 6.10289 17.2716 5.95238 16.8947 5.95238H13.1053ZM8.36842 8.80952C8.63003 8.80952 8.8421 9.02272 8.8421 9.28571V22.619C8.8421 22.9979 8.99182 23.3613 9.25832 23.6292C9.52482 23.8971 9.88627 24.0476 10.2632 24.0476H19.7368C20.1137 24.0476 20.4752 23.8971 20.7417 23.6292C21.0082 23.3613 21.1579 22.9979 21.1579 22.619V9.28571C21.1579 9.02272 21.37 8.80952 21.6316 8.80952C21.8932 8.80952 22.1053 9.02272 22.1053 9.28571V22.619C22.1053 23.2505 21.8557 23.8561 21.4116 24.3026C20.9674 24.7491 20.365 25 19.7368 25H10.2632C9.63501 25 9.0326 24.7491 8.58843 24.3026C8.14427 23.8561 7.89474 23.2505 7.89474 22.619V9.28571C7.89474 9.02272 8.10681 8.80952 8.36842 8.80952Z" fill="white"/>
<path fill-rule="evenodd" clip-rule="evenodd" d="M13.1053 13.5714C13.3669 13.5714 13.5789 13.7846 13.5789 14.0476V19.7619C13.5789 20.0249 13.3669 20.2381 13.1053 20.2381C12.8437 20.2381 12.6316 20.0249 12.6316 19.7619V14.0476C12.6316 13.7846 12.8437 13.5714 13.1053 13.5714Z" fill="white"/>
<path fill-rule="evenodd" clip-rule="evenodd" d="M16.8947 13.5714C17.1563 13.5714 17.3684 13.7846 17.3684 14.0476V19.7619C17.3684 20.0249 17.1563 20.2381 16.8947 20.2381C16.6331 20.2381 16.4211 20.0249 16.4211 19.7619V14.0476C16.4211 13.7846 16.6331 13.5714 16.8947 13.5714Z" fill="white"/>
<path fill-rule="evenodd" clip-rule="evenodd" d="M6 9.28571C6 9.02272 6.21208 8.80952 6.47368 8.80952H23.5263C23.7879 8.80952 24 9.02272 24 9.28571C24 9.54871 23.7879 9.7619 23.5263 9.7619H6.47368C6.21208 9.7619 6 9.54871 6 9.28571Z" stroke="white" stroke-width="0.5" stroke-linecap="round" stroke-linejoin="round"/>
<path fill-rule="evenodd" clip-rule="evenodd" d="M13.1053 5.95238C12.7284 5.95238 12.3669 6.10289 12.1004 6.3708C11.8339 6.63871 11.6842 7.00207 11.6842 7.38095V9.28571C11.6842 9.54871 11.4721 9.7619 11.2105 9.7619C10.9489 9.7619 10.7368 9.54871 10.7368 9.28571V7.38095C10.7368 6.74948 10.9864 6.14388 11.4305 5.69736C11.8747 5.25085 12.4771 5 13.1053 5H16.8947C17.5229 5 18.1253 5.25085 18.5695 5.69736C19.0136 6.14388 19.2632 6.74948 19.2632 7.38095V9.28571C19.2632 9.54871 19.0511 9.7619 18.7895 9.7619C18.5279 9.7619 18.3158 9.54871 18.3158 9.28571V7.38095C18.3158 7.00207 18.1661 6.63871 17.8996 6.3708C17.6331 6.10289 17.2716 5.95238 16.8947 5.95238H13.1053ZM8.36842 8.80952C8.63003 8.80952 8.8421 9.02272 8.8421 9.28571V22.619C8.8421 22.9979 8.99182 23.3613 9.25832 23.6292C9.52482 23.8971 9.88627 24.0476 10.2632 24.0476H19.7368C20.1137 24.0476 20.4752 23.8971 20.7417 23.6292C21.0082 23.3613 21.1579 22.9979 21.1579 22.619V9.28571C21.1579 9.02272 21.37 8.80952 21.6316 8.80952C21.8932 8.80952 22.1053 9.02272 22.1053 9.28571V22.619C22.1053 23.2505 21.8557 23.8561 21.4116 24.3026C20.9674 24.7491 20.365 25 19.7368 25H10.2632C9.63501 25 9.0326 24.7491 8.58843 24.3026C8.14427 23.8561 7.89474 23.2505 7.89474 22.619V9.28571C7.89474 9.02272 8.10681 8.80952 8.36842 8.80952Z" stroke="white" stroke-width="0.5" stroke-linecap="round" stroke-linejoin="round"/>
<path fill-rule="evenodd" clip-rule="evenodd" d="M13.1053 13.5714C13.3669 13.5714 13.5789 13.7846 13.5789 14.0476V19.7619C13.5789 20.0249 13.3669 20.2381 13.1053 20.2381C12.8437 20.2381 12.6316 20.0249 12.6316 19.7619V14.0476C12.6316 13.7846 12.8437 13.5714 13.1053 13.5714Z" stroke="white" stroke-width="0.5" stroke-linecap="round" stroke-linejoin="round"/>
<path fill-rule="evenodd" clip-rule="evenodd" d="M16.8947 13.5714C17.1563 13.5714 17.3684 13.7846 17.3684 14.0476V19.7619C17.3684 20.0249 17.1563 20.2381 16.8947 20.2381C16.6331 20.2381 16.4211 20.0249 16.4211 19.7619V14.0476C16.4211 13.7846 16.6331 13.5714 16.8947 13.5714Z" stroke="white" stroke-width="0.5" stroke-linecap="round" stroke-linejoin="round"/>
</svg>
